<?xml version="1.0" encoding="UTF-8" standalone="no"?>
<svg
   xmlns:dc="http://purl.org/dc/elements/1.1/"
   xmlns:cc="http://creativecommons.org/ns#"
   xmlns:rdf="http://www.w3.org/1999/02/22-rdf-syntax-ns#"
   xmlns:svg="http://www.w3.org/2000/svg"
   xmlns="http://www.w3.org/2000/svg"
   xmlns:sodipodi="http://sodipodi.sourceforge.net/DTD/sodipodi-0.dtd"
   xmlns:inkscape="http://www.inkscape.org/namespaces/inkscape"
   version="1.1"
   id="Capa_1"
   x="0px"
   y="0px"
   viewBox="0 0 31.439768 25.519812"
   xml:space="preserve"
   width="31.439768"
   height="25.519812"
   class=""
   sodipodi:docname="twitter.svg"
   inkscape:version="0.92.3 (2405546, 2018-03-11)"><metadata
   id="metadata27"><rdf:RDF><cc:Work
       rdf:about=""><dc:format>image/svg+xml</dc:format><dc:type
         rdf:resource="http://purl.org/dc/dcmitype/StillImage" /><dc:title></dc:title></cc:Work></rdf:RDF></metadata><defs
   id="defs25"><pattern
     y="0"
     x="0"
     height="6"
     width="6"
     patternUnits="userSpaceOnUse"
     id="EMFhbasepattern" /><pattern
     y="0"
     x="0"
     height="6"
     width="6"
     patternUnits="userSpaceOnUse"
     id="EMFhbasepattern-0" /></defs><sodipodi:namedview
   pagecolor="#ffffff"
   bordercolor="#666666"
   borderopacity="1"
   objecttolerance="10"
   gridtolerance="10"
   guidetolerance="10"
   inkscape:pageopacity="0"
   inkscape:pageshadow="2"
   inkscape:window-width="1680"
   inkscape:window-height="987"
   id="namedview23"
   showgrid="false"
   inkscape:zoom="7.375"
   inkscape:cx="6.7454568"
   inkscape:cy="22.277368"
   inkscape:window-x="-8"
   inkscape:window-y="-8"
   inkscape:window-maximized="1"
   inkscape:current-layer="Capa_1" /> <path
   id="path64"
   d="M 31.439767,3.039978 C 30.239776,3.519974 29.039785,3.839972 27.679795,4.07997 29.039785,3.279976 30.079777,1.999985 30.559774,0.479997 29.279783,1.199991 27.919793,1.759987 26.479804,1.999985 25.279813,0.799994 23.599825,0 21.759839,0 c -3.599974,0 -6.479952,2.879979 -6.479952,6.479952 0,0.479997 0.08,0.959993 0.159999,1.439989 C 10.079925,7.679943 5.35996,5.119962 2.159984,1.199991 1.599988,2.159984 1.27999,3.279976 1.27999,4.399968 c 0,2.239983 1.199991,4.239968 2.879979,5.35996 -1.039992,0 -2.079985,-0.319998 -2.879979,-0.799994 v 0.08 c 0,3.119977 2.239984,5.759957 5.119962,6.319953 -0.479996,0.159999 -1.039992,0.239998 -1.679987,0.239998 -0.399997,0 -0.799994,0 -1.199991,-0.08 0.799994,2.559981 3.199976,4.399967 5.999955,4.479967 -2.159984,1.679987 -4.959963,2.71998 -7.999941,2.71998 -0.479996,0 -1.039992,0 -1.519988,-0.08 2.879978,1.839987 6.239954,2.879979 9.919926,2.879979 11.839913,0 18.319865,-9.839927 18.319865,-18.319865 0,-0.319997 0,-0.559995 -0.08,-0.799994 1.279991,-0.959993 2.399983,-2.079984 3.279976,-3.359974 z"
   style="fill:#ffffff;fill-opacity:1;fill-rule:nonzero;stroke:none"
   inkscape:connector-curvature="0" /></svg>