<?xml version="1.0" encoding="UTF-8" standalone="no"?>
<svg
   xmlns:dc="http://purl.org/dc/elements/1.1/"
   xmlns:cc="http://creativecommons.org/ns#"
   xmlns:rdf="http://www.w3.org/1999/02/22-rdf-syntax-ns#"
   xmlns:svg="http://www.w3.org/2000/svg"
   xmlns="http://www.w3.org/2000/svg"
   xmlns:sodipodi="http://sodipodi.sourceforge.net/DTD/sodipodi-0.dtd"
   xmlns:inkscape="http://www.inkscape.org/namespaces/inkscape"
   version="1.1"
   id="Layer_1"
   x="0px"
   y="0px"
   viewBox="0 0 539.1947 512"
   xml:space="preserve"
   width="539.1947"
   height="512"
   class=""
   sodipodi:docname="apple.svg"
   inkscape:version="0.92.3 (2405546, 2018-03-11)"><metadata
   id="metadata17"><rdf:RDF><cc:Work
       rdf:about=""><dc:format>image/svg+xml</dc:format><dc:type
         rdf:resource="http://purl.org/dc/dcmitype/StillImage" /><dc:title></dc:title></cc:Work></rdf:RDF></metadata><defs
   id="defs15" /><sodipodi:namedview
   pagecolor="#ffffff"
   bordercolor="#666666"
   borderopacity="1"
   objecttolerance="10"
   gridtolerance="10"
   guidetolerance="10"
   inkscape:pageopacity="0"
   inkscape:pageshadow="2"
   inkscape:window-width="1680"
   inkscape:window-height="987"
   id="namedview13"
   showgrid="false"
   inkscape:zoom="0.4609375"
   inkscape:cx="-126.00333"
   inkscape:cy="200.82093"
   inkscape:window-x="-8"
   inkscape:window-y="-8"
   inkscape:window-maximized="1"
   inkscape:current-layer="layer3" /><g
   id="g10"
   transform="translate(5.0646156,67.498735)" /> <path
   inkscape:connector-curvature="0"
   style="isolation:isolate;fill:#1d65b1;stroke-width:6.12845898"
   d="m 293.14445,177.12435 h -28.91354 c -4.64826,0 -8.47734,-2.49945 -10.25844,-6.68133 -1.77491,-4.18794 -0.87504,-8.59979 2.40791,-11.80127 l 20.44241,-19.92901 c 3.00368,-2.92913 4.66067,-6.83263 4.66067,-10.97214 0,-4.14558 -1.65699,-8.04302 -4.66067,-10.97821 l -26.0588,-25.412065 c -6.00737,-5.86432 -16.48922,-5.87037 -22.509,0 l -20.4362,19.929025 c -3.28916,3.20147 -7.81951,4.09109 -12.10161,2.34814 -4.29452,-1.73085 -6.85138,-5.4649 -6.85138,-9.9978 V 75.433745 c 0,-8.55743 -7.13684,-15.51715 -15.91206,-15.51715 h -36.85716 c -8.77522,0 -15.91207,6.95972 -15.91207,15.51715 V 103.6297 c 0,4.5329 -2.55685,8.26694 -6.84517,9.9978 -4.2821,1.749 -8.81867,0.85332 -12.10162,-2.34815 L 80.80152,91.350325 c -6.025981,-5.87037 -16.501632,-5.86432 -22.508995,0 L 32.233724,116.7624 c -3.003681,2.92913 -4.660671,6.83263 -4.660671,10.9782 0,4.13952 1.65699,8.03696 4.660671,10.97214 l 20.442413,19.92902 c 3.276743,3.20147 4.176607,7.61332 2.401704,11.80127 -1.774903,4.18187 -5.610182,6.68133 -10.252236,6.68133 H 15.90586 C 7.136847,177.12436 0,184.08408 0,192.63546 v 35.94243 c 0,8.55743 7.136847,15.51715 15.90586,15.51715 h 28.919745 c 4.642054,0 8.471127,2.49339 10.252236,6.68133 1.781109,4.18794 0.875039,8.59374 -2.401704,11.80127 l -20.442413,19.92901 c -3.003681,2.92913 -4.660671,6.83263 -4.660671,10.97215 0,4.14556 1.65699,8.04302 4.660671,10.97819 l 26.058801,25.41208 c 6.013569,5.86432 16.483014,5.87642 22.508995,0 l 20.4362,-19.93507 c 3.28295,-3.20148 7.8009,-4.079 12.10162,-2.34815 4.28832,1.73691 6.84517,5.47095 6.84517,10.00384 v 28.19596 c 0,8.55743 7.13685,15.51715 15.91207,15.51715 h 36.85095 c 8.77522,0 15.91207,-6.95972 15.91207,-15.51715 v -28.19596 c 0,-4.53289 2.55685,-8.26693 6.85137,-10.00384 4.30073,-1.7369 8.81246,-0.85333 12.10161,2.34815 l 20.43621,19.93507 c 6.01977,5.87037 16.50163,5.85825 22.50899,0 l 26.0588,-25.41208 c 3.00368,-2.92912 4.66067,-6.83263 4.66067,-10.97819 0,-4.13952 -1.65699,-8.03697 -4.66067,-10.97215 l -20.44241,-19.92902 c -3.28295,-3.20752 -4.17661,-7.61332 -2.40791,-11.80126 1.7749,-4.18794 5.61639,-6.68133 10.26465,-6.68133 h 28.91354 c 8.77522,0 15.91206,-6.95972 15.91206,-15.51715 v -35.94243 c 0,-8.55138 -7.13684,-15.5111 -15.91206,-15.51111 z m 4.46208,51.45353 c 0,2.40262 -1.99832,4.3574 -4.46208,4.3574 h -28.91354 c -9.29652,0 -17.27738,5.19861 -20.83339,13.57447 -3.56222,8.36983 -1.68802,17.55666 4.89029,23.96566 l 20.44241,19.92901 c 1.74388,1.70058 1.74388,4.46632 0,6.16087 l -26.0588,25.41206 c -1.73766,1.69454 -4.57378,1.70663 -6.31766,0 l -20.4362,-19.93507 c -6.57831,-6.41504 -15.99275,-8.23062 -24.57558,-4.76892 -8.58904,3.46776 -13.91996,11.25054 -13.91996,20.31633 v 28.19595 c 0,2.40261 -2.00452,4.35739 -4.46828,4.35739 h -36.85716 c -2.45756,0 -4.46208,-1.95478 -4.46208,-4.35739 v -28.19595 c 0,-9.0658 -5.33712,-16.84858 -13.91996,-20.31634 -2.87956,-1.16802 -5.84601,-1.7369 -8.77522,-1.7369 -5.80257,0 -11.425167,2.23316 -15.800367,6.49977 L 72.70275,321.97128 c -1.750079,1.70665 -4.5862,1.69456 -6.317661,0 L 40.326288,296.55922 c -1.750079,-1.70059 -1.750079,-4.46632 0,-6.16086 l 20.442413,-19.92901 c 6.572105,-6.40899 8.446303,-15.59583 4.884085,-23.96565 -3.549805,-8.36982 -11.536868,-13.56843 -20.827181,-13.56843 H 15.90586 c -2.457558,0 -4.462081,-1.95478 -4.462081,-4.35739 v -35.94243 c 0,-2.39656 2.004523,-4.35134 4.462081,-4.35134 h 28.919745 c 9.290313,0 17.277376,-5.20466 20.827181,-13.57448 3.562218,-8.36982 1.694226,-17.55665 -4.884085,-23.96565 L 40.326288,130.81497 c -1.750079,-1.70058 -1.750079,-4.46631 0,-6.16086 L 66.385089,99.242045 c 1.737667,-1.70059 4.567582,-1.70059 6.317661,0 l 20.436203,19.929015 c 6.5659,6.40295 15.980337,8.23668 24.575587,4.76893 8.58284,-3.46171 13.91996,-11.25054 13.91996,-20.31029 V 75.433745 c 0,-2.40261 2.00452,-4.35739 4.46208,-4.35739 h 36.85095 c 2.46997,0 4.47449,1.95478 4.47449,4.35739 V 103.6297 c 0,9.05975 5.33092,16.84858 13.91996,20.31634 8.59525,3.46776 18.00347,1.64007 24.57558,-4.76892 l 20.4362,-19.929015 c 1.75008,-1.70665 4.5862,-1.70665 6.31766,0 l 26.0588,25.412065 c 1.74388,1.70059 1.74388,4.46027 0,6.16086 l -20.44241,19.92901 c -6.5721,6.409 -8.45251,15.59582 -4.89029,23.96564 3.55601,8.36982 11.53687,13.57449 20.83339,13.57449 h 28.91354 c 2.46376,-0.006 4.46208,1.94873 4.46208,4.34528 z"
   id="path173" /><path
   inkscape:connector-curvature="0"
   style="isolation:isolate;fill:#1d65b1;stroke-width:6.12845898"
   d="m 154.52826,160.37866 c -28.40465,0 -51.50943,22.53134 -51.50943,50.23104 0,27.69969 23.10478,50.23103 51.50943,50.23103 28.40465,0 51.50942,-22.53134 51.50942,-50.23103 0,-27.6997 -23.10477,-50.23104 -51.50942,-50.23104 z m 0,89.29625 c -22.08699,0 -40.06564,-17.5264 -40.06564,-39.06522 0,-21.53882 17.97865,-39.07127 40.06564,-39.07127 22.08699,0 40.05943,17.53245 40.05943,39.07127 0,21.53882 -17.97244,39.06522 -40.05943,39.06522 z"
   id="path175" /><g
   inkscape:groupmode="layer"
   id="layer3"
   inkscape:label="Layer 1"
   transform="translate(5.0646156,67.498735)"><path
     style="fill:#279bec"
     d="m 437.4981,-57.158735 -0.546,-10.34 -10.292,1.11 c -1.005,0.105 -100.51,12.101 -107.332,123.339 l -0.685,11.134 11.134,-0.756 c 1.141,-0.076 113.829,-9.071 107.721,-124.487 z"
     data-original="#314E55"
     class=""
     data-old_color="#279bec"
     id="path2"
     inkscape:connector-curvature="0" /><path
     style="fill:#ffffff"
     d="m 418.0731,-44.732735 c -1.876,67.039999 -54.025,85.685 -77.964,90.716 9.114,-65.154 56.361,-85 77.964,-90.716 z"
     data-original="#D8D8D8"
     class="active-path"
     data-old_color="#ffffff"
     id="path4"
     inkscape:connector-curvature="0" /><path
     style="fill:#279bec"
     d="m 533.3941,300.30126 -6.266,-2.025 c -37.907,-12.254 -63.373,-46.983 -63.373,-86.413 0,-35.078 19.837,-66.452 51.77,-81.88 l 9.526,-4.6 -5.314,-9.148 c -2.279,-3.925 -23.542,-38.658995 -68.457,-50.151995 -35.629,-9.119 -75.685,-1.053 -119.107,23.987 -18.377,-11.158 -79.438,-43.316 -128.011,-11.082 -9.507,5.256 -110.294995,65.632995 -57.84,228.553995 1.541,3.648 38.118,89.342 81.401,121.434 11.675,11.158 41.541,25.098 75.661,1.833 5.912,-2.436 45.47,-17.664 70.568,0.163 9.263,6.344 25.442,13.529 42.531,13.529 12.958,0 26.443,-4.131 37.831,-15.893 5.314,-4.6 53.848,-47.921 79.079,-116.541 l 0.737,-2.001 z"
     data-original="#314E55"
     class=""
     data-old_color="#279bec"
     id="path6"
     inkscape:connector-curvature="0" /><path
     style="fill:#ffffff"
     d="m 441.2221,414.00426 -0.756,0.713 c -21.503,22.58 -54.092,0.981 -55.303,0.177 -12.819,-9.114 -27.678,-12.087 -41.608,-12.087 -25.284,0 -47.515,9.789 -48.936,10.431 l -1.599,0.905 c -29.592,20.655 -49.86,2.484 -52.009,0.412 l -1.154,-0.991 c -39.147,-28.549 -75.121,-112.812 -75.173,-112.841 -49.099,-152.62 44.954,-202.537995 48.951,-204.571995 l 1.082,-0.632 c 45.557,-30.588 111.041,13.680995 111.692,14.130995 l 5.223,3.585 5.409,-3.269 c 40.784,-24.651995 77.586,-33.033995 109.376,-24.886995 25.897,6.625 42.412,22.808995 50.487,32.760995 -32.809,20.11 -52.756,55.193 -52.756,94.024 0,44.662 26.816,84.35 67.667,101.616 -25.141,61.377 -70.119,100.122 -70.593,100.524 z"
     data-original="#D8D8D8"
     class="active-path"
     data-old_color="#ffffff"
     id="path8"
     inkscape:connector-curvature="0" /></g></svg>