<?xml version="1.0" encoding="UTF-8" standalone="no"?>
<!-- Generator: Gravit.io -->

<svg
   xmlns:dc="http://purl.org/dc/elements/1.1/"
   xmlns:cc="http://creativecommons.org/ns#"
   xmlns:rdf="http://www.w3.org/1999/02/22-rdf-syntax-ns#"
   xmlns:svg="http://www.w3.org/2000/svg"
   xmlns="http://www.w3.org/2000/svg"
   xmlns:sodipodi="http://sodipodi.sourceforge.net/DTD/sodipodi-0.dtd"
   xmlns:inkscape="http://www.inkscape.org/namespaces/inkscape"
   style="isolation:isolate"
   viewBox="0 0 96.265999 74.014"
   width="96.265999"
   height="74.014"
   version="1.1"
   id="svg527"
   sodipodi:docname="laptop.svg"
   inkscape:version="0.92.3 (2405546, 2018-03-11)">
  <metadata
     id="metadata531">
    <rdf:RDF>
      <cc:Work
         rdf:about="">
        <dc:format>image/svg+xml</dc:format>
        <dc:type
           rdf:resource="http://purl.org/dc/dcmitype/StillImage" />
        <dc:title></dc:title>
      </cc:Work>
    </rdf:RDF>
  </metadata>
  <sodipodi:namedview
     pagecolor="#ffffff"
     bordercolor="#666666"
     borderopacity="1"
     objecttolerance="10"
     gridtolerance="10"
     guidetolerance="10"
     inkscape:pageopacity="0"
     inkscape:pageshadow="2"
     inkscape:window-width="1680"
     inkscape:window-height="987"
     id="namedview529"
     showgrid="false"
     inkscape:zoom="1.9962992"
     inkscape:cx="37.466133"
     inkscape:cy="-21.986514"
     inkscape:window-x="-8"
     inkscape:window-y="-8"
     inkscape:window-maximized="1"
     inkscape:current-layer="g525" />
  <defs
     id="defs5">
    <clipPath
       id="_clipPath_WEbRuCXEjKZiW0o1rh3aqMjY8LG5qN6I">
      <rect
         width="1440"
         height="3783"
         id="rect2"
         x="0"
         y="0" />
    </clipPath>
  </defs>
  <g
     clip-path="url(#_clipPath_WEbRuCXEjKZiW0o1rh3aqMjY8LG5qN6I)"
     id="g525"
     transform="translate(-785.40937,-1646.1074)">
    <defs
       id="defs12">
      <filter
         id="Jl74bkcIEZ28psiDgPOY4xKZPYcsLses"
         x="0"
         y="111.75"
         width="1440"
         height="491.25"
         filterUnits="userSpaceOnUse">
        <feGaussianBlur
           stdDeviation="3.520759431528003"
           id="feGaussianBlur9" />
      </filter>
    </defs>
    <defs
       id="defs23">
      <filter
         id="0Mib213nQmVDXAIZYKnSFqt4z7F063Gx"
         x="0"
         y="111.75"
         width="1440"
         height="491.25"
         filterUnits="userSpaceOnUse">
        <feGaussianBlur
           stdDeviation="3.520759431528003"
           id="feGaussianBlur14" />
      </filter>
      <mask
         id="_mask_HiVRkrZPMmlHN5HpSmKxj9czrvxY2wEm">
        <path
           d="M 0,111.75 H 1440 V 603 H 0 Z"
           style="fill:#ffffff;stroke:#000000;stroke-miterlimit:10"
           id="path17"
           inkscape:connector-curvature="0" />
      </mask>
      <mask
         id="_mask_uVajDgxRAbJls5q1fV4rEjfLuopwzWOW">
        <path
           d="M 0,111.75 H 1440 V 603 H 0 Z"
           style="fill:#ffffff;stroke:#000000;stroke-miterlimit:10"
           id="path20"
           inkscape:connector-curvature="0" />
      </mask>
    </defs>
    <defs
       id="defs87">
      <filter
         id="xsjk6tkInv4IKyIonsOWIdKWdT8VZVDN"
         x="697"
         y="302.14099"
         width="647.25"
         height="168.85899"
         filterUnits="userSpaceOnUse">
        <feGaussianBlur
           in="SourceGraphic"
           stdDeviation="1.7174436251356113"
           id="feGaussianBlur76" />
        <feOffset
           dx="0"
           dy="0"
           result="pf_100_offsetBlur"
           id="feOffset78" />
        <feFlood
           flood-color="#FFFFFF"
           flood-opacity="0.45"
           id="feFlood80" />
        <feComposite
           in2="pf_100_offsetBlur"
           operator="in"
           result="pf_100_dropShadow"
           id="feComposite82" />
        <feBlend
           in="SourceGraphic"
           in2="pf_100_dropShadow"
           mode="normal"
           id="feBlend84" />
      </filter>
    </defs>
    <defs
       id="defs112">
      <filter
         id="1LWZMG2P9Y1ZqtXirxSJLTTHlQa1pSak"
         x="956.31299"
         y="132"
         width="376.68701"
         height="78"
         filterUnits="userSpaceOnUse">
        <feGaussianBlur
           in="SourceGraphic"
           stdDeviation="1.7174436251356113"
           id="feGaussianBlur101" />
        <feOffset
           dx="0"
           dy="0"
           result="pf_100_offsetBlur"
           id="feOffset103" />
        <feFlood
           flood-color="#FFFFFF"
           flood-opacity="0.45"
           id="feFlood105" />
        <feComposite
           in2="pf_100_offsetBlur"
           operator="in"
           result="pf_100_dropShadow"
           id="feComposite107" />
        <feBlend
           in="SourceGraphic"
           in2="pf_100_dropShadow"
           mode="normal"
           id="feBlend109" />
      </filter>
    </defs>
    <defs
       id="defs131">
      <filter
         id="mLLMT4dRs4WR0csvMimSuS6HwBGeJVIO"
         x="402"
         y="132"
         width="476"
         height="78"
         filterUnits="userSpaceOnUse">
        <feGaussianBlur
           in="SourceGraphic"
           stdDeviation="1.7174436251356113"
           id="feGaussianBlur120" />
        <feOffset
           dx="0"
           dy="0"
           result="pf_100_offsetBlur"
           id="feOffset122" />
        <feFlood
           flood-color="#FFFFFF"
           flood-opacity="0.45"
           id="feFlood124" />
        <feComposite
           in2="pf_100_offsetBlur"
           operator="in"
           result="pf_100_dropShadow"
           id="feComposite126" />
        <feBlend
           in="SourceGraphic"
           in2="pf_100_dropShadow"
           mode="normal"
           id="feBlend128" />
      </filter>
    </defs>
    <linearGradient
       id="_lgradient_5"
       x1="0.18125001"
       y1="-0.51881719"
       x2="0.65781248"
       y2="2.5537634"
       gradientTransform="matrix(1440,0,0,93,0,3690)"
       gradientUnits="userSpaceOnUse">
      <stop
         offset="0%"
         stop-opacity="1"
         style="stop-color:rgb(0,0,0)"
         id="stop408" />
      <stop
         offset="100%"
         stop-opacity="1"
         style="stop-color:rgb(0,0,0)"
         id="stop410" />
    </linearGradient>
    <defs
       id="defs452">
      <filter
         id="D7YgINKqIq1tO7FwbwRL4kURfDHFpG8b"
         x="146.79201"
         y="2494.6221"
         width="498.73099"
         height="331.189"
         filterUnits="userSpaceOnUse">
        <feGaussianBlur
           stdDeviation="0"
           id="feGaussianBlur449" />
      </filter>
    </defs>
    <defs
       id="defs463">
      <filter
         id="4kaFQzPlrlV7Ccfe5xqdlUgI0Ws7DKnw"
         x="146.79201"
         y="2494.6221"
         width="498.73099"
         height="331.189"
         filterUnits="userSpaceOnUse">
        <feGaussianBlur
           stdDeviation="0"
           id="feGaussianBlur454" />
      </filter>
      <mask
         id="_mask_F1CajtetFSqMPCACOY3cfeWu0ML5tEs6">
        <path
           d="m 146.792,2494.622 h 498.732 v 331.189 H 146.792 Z"
           style="fill:#ffffff;stroke:#000000;stroke-miterlimit:10"
           id="path457"
           inkscape:connector-curvature="0" />
      </mask>
      <mask
         id="_mask_ScNuadAo73WhVIG48m8tuK0xKXScanZF">
        <path
           d="m 146.792,2494.622 h 498.732 v 331.189 H 146.792 Z"
           style="fill:#ffffff;stroke:#000000;stroke-miterlimit:10"
           id="path460"
           inkscape:connector-curvature="0" />
      </mask>
    </defs>
    <g
       style="isolation:isolate"
       id="g153"
       transform="translate(605.66737,-138.89459)">
      <path
         d="m 265.809,1785.009 0.102,0.01 0.111,0.01 0.112,0.028 0.102,0.018 0.102,0.028 0.102,0.037 0.102,0.028 0.103,0.047 0.093,0.037 0.092,0.046 0.093,0.056 0.093,0.056 0.093,0.055 0.084,0.056 0.083,0.065 0.084,0.065 0.074,0.075 0.075,0.074 0.074,0.074 0.074,0.074 0.065,0.084 0.065,0.084 0.056,0.083 0.056,0.093 0.055,0.093 0.056,0.093 0.047,0.093 0.037,0.093 0.046,0.102 0.028,0.102 0.037,0.102 0.028,0.103 0.019,0.102 0.028,0.111 0.009,0.112 0.009,0.102 0.009,0.111 v 0.112 48.946 l 7.544,14.872 0.009,0.01 v 0.01 0.01 l 0.009,0.01 0.009,0.018 v 0.01 l 0.01,0.018 0.009,0.01 v 0.019 l 0.009,0.01 v 0.01 l 0.01,0.027 0.009,0.019 v 0.01 l 0.009,0.019 0.009,0.018 v 0.01 l 0.01,0.018 v 0.019 l 0.009,0.019 v 0 0.018 l 0.009,0.01 v 0.019 0.01 l 0.01,0.028 v 0.01 0.01 l 0.009,0.01 v 0.019 0.01 0.01 0.01 0.019 l 0.009,0.01 v 0.01 0.018 0 0.028 0 0.019 0.027 l 0.009,0.019 v 0.01 0.019 0.019 3.576 l -0.009,0.13 v 0.139 l -0.018,0.13 -0.019,0.13 -0.019,0.121 -0.027,0.13 -0.038,0.121 -0.037,0.121 -0.046,0.121 -0.047,0.12 -0.046,0.112 -0.056,0.111 -0.065,0.112 -0.065,0.111 -0.065,0.102 -0.074,0.103 -0.075,0.102 -0.074,0.093 -0.083,0.093 -0.093,0.092 -0.084,0.084 -0.093,0.084 -0.102,0.083 -0.093,0.075 -0.102,0.065 -0.112,0.074 -0.102,0.065 -0.111,0.056 -0.112,0.055 -0.121,0.056 -0.111,0.047 -0.121,0.037 -0.121,0.037 -0.13,0.037 -0.12,0.028 -0.13,0.028 -0.13,0.018 -0.13,0.01 -0.131,0.01 h -0.13 -89.782 -0.14 l -0.13,-0.01 -0.13,-0.01 -0.13,-0.018 -0.13,-0.028 -0.121,-0.028 -0.12,-0.037 -0.121,-0.037 -0.121,-0.037 -0.121,-0.047 -0.111,-0.056 -0.121,-0.055 -0.102,-0.056 -0.112,-0.065 -0.102,-0.074 -0.102,-0.065 -0.102,-0.075 -0.093,-0.083 -0.093,-0.084 -0.093,-0.084 -0.084,-0.092 -0.083,-0.093 -0.084,-0.093 -0.074,-0.102 -0.074,-0.103 -0.065,-0.102 -0.065,-0.111 -0.056,-0.112 -0.056,-0.111 -0.056,-0.112 -0.046,-0.12 -0.037,-0.121 -0.047,-0.121 -0.028,-0.121 -0.027,-0.13 -0.028,-0.121 -0.019,-0.13 -0.009,-0.13 -0.009,-0.139 v -0.13 -3.576 -0.01 -0.01 -0.019 -0.01 -0.046 -0.01 -0.018 l 0.009,-0.019 v -0.028 -0.01 -0.01 -0.019 l 0.009,-0.01 v -0.01 -0.019 -0.01 l 0.009,-0.019 v -0.018 -0.01 -0.01 l 0.01,-0.028 0.009,-0.018 v -0.019 l 0.009,-0.019 v -0.018 l 0.01,-0.01 v -0.01 l 0.009,-0.018 v -0.01 l 0.009,-0.018 0.009,-0.028 v -0.01 l 0.01,-0.019 0.009,-0.019 0.009,-0.018 0.01,-0.019 v 0 -0.018 l 0.009,-0.019 0.009,-0.01 v -0.01 l 7.543,-14.872 v -48.946 -0.112 l 0.01,-0.111 0.009,-0.102 0.018,-0.112 0.019,-0.111 0.028,-0.102 0.028,-0.103 0.028,-0.102 0.037,-0.102 0.037,-0.102 0.046,-0.093 0.047,-0.093 0.046,-0.093 0.056,-0.093 0.056,-0.093 0.065,-0.083 0.065,-0.084 0.065,-0.084 0.065,-0.074 0.074,-0.074 0.074,-0.074 0.084,-0.075 0.074,-0.065 0.084,-0.065 0.093,-0.056 0.084,-0.055 0.092,-0.056 0.093,-0.056 0.093,-0.046 0.102,-0.037 0.093,-0.047 0.102,-0.028 0.103,-0.037 0.102,-0.028 0.111,-0.018 0.102,-0.028 0.112,-0.01 0.111,-0.01 0.112,-0.01 h 0.111 75.422 0.111 z m -83.253,70.749 v 0.019 0.018 l 0.01,0.019 v 0.01 0.019 l 0.009,0.018 v 0.019 l 0.009,0.01 v 0.019 l 0.009,0.018 0.01,0.01 v 0.018 l 0.009,0.01 0.009,0.019 0.01,0.01 0.009,0.019 0.009,0.01 0.009,0.019 0.01,0.01 0.018,0.01 0.01,0.01 0.009,0.019 0.018,0.01 0.01,0.01 0.009,0.01 0.019,0.01 0.009,0.01 h 0.019 l 0.009,0.01 0.018,0.01 0.019,0.01 h 0.009 l 0.019,0.01 h 0.018 l 0.019,0.01 h 0.009 0.019 0.018 0.019 l 0.019,0.01 h 89.782 l 0.01,-0.01 h 0.009 0.009 0.019 0.009 l 0.009,-0.01 h 0.01 0.018 l 0.01,-0.01 h 0.009 l 0.009,-0.01 0.009,-0.01 h 0.01 l 0.018,-0.01 0.01,-0.01 0.009,-0.01 0.009,-0.01 0.01,-0.01 0.009,-0.01 0.018,-0.01 0.01,-0.01 0.009,-0.01 0.009,-0.018 0.01,-0.01 0.009,-0.01 0.009,-0.019 0.009,-0.01 0.01,-0.018 0.018,-0.01 0.01,-0.018 0.009,-0.019 0.009,-0.018 0.009,-0.01 0.01,-0.018 0.009,-0.019 0.009,-0.018 0.01,-0.019 0.009,-0.019 0.009,-0.027 0.009,-0.019 v -2.164 h -90.628 z m 34.799,-4.988 h 21.04 l -1.319,-4.766 h -18.412 z m -33.907,0 h 30.98 l 1.552,-5.639 0.028,-0.084 0.028,-0.083 0.027,-0.084 0.038,-0.084 0.037,-0.074 0.037,-0.084 0.037,-0.074 0.047,-0.074 0.046,-0.074 0.046,-0.075 0.047,-0.065 0.056,-0.074 0.046,-0.065 0.056,-0.065 0.065,-0.065 0.056,-0.056 0.065,-0.056 0.065,-0.065 0.065,-0.046 0.065,-0.056 0.065,-0.056 0.074,-0.046 0.065,-0.047 0.074,-0.037 0.075,-0.046 0.074,-0.037 0.084,-0.037 0.074,-0.038 0.083,-0.027 0.075,-0.028 0.083,-0.028 0.084,-0.028 0.084,-0.019 0.083,-0.018 0.093,-0.019 0.084,-0.01 0.083,-0.01 0.093,-0.01 0.084,-0.01 h 0.093 18.662 0.084 l 0.093,0.01 0.083,0.01 0.093,0.01 0.084,0.01 0.084,0.019 0.083,0.018 0.084,0.019 0.083,0.028 0.084,0.028 0.084,0.028 0.074,0.027 0.083,0.038 0.075,0.037 0.074,0.037 0.074,0.046 0.075,0.037 0.074,0.047 0.065,0.046 0.074,0.056 0.065,0.056 0.065,0.046 0.065,0.065 0.056,0.056 0.065,0.056 0.056,0.065 0.056,0.065 0.055,0.065 0.047,0.074 0.056,0.065 0.046,0.075 0.047,0.074 0.037,0.074 0.046,0.074 0.037,0.084 0.037,0.074 0.028,0.084 0.028,0.084 0.028,0.083 0.028,0.084 1.561,5.639 h 30.98 l -6.27,-12.356 h -76.323 z m 6.809,-15.179 h 75.236 v -47.776 h -75.236 z"
         id="path147"
         inkscape:connector-curvature="0"
         style="fill:#000000" />
      <g
         id="g151">
        <path
           d="m 265.809,1785.009 0.102,0.01 0.111,0.01 0.112,0.028 0.102,0.018 0.102,0.028 0.102,0.037 0.102,0.028 0.103,0.047 0.093,0.037 0.092,0.046 0.093,0.056 0.093,0.056 0.093,0.055 0.084,0.056 0.083,0.065 0.084,0.065 0.074,0.075 0.075,0.074 0.074,0.074 0.074,0.074 0.065,0.084 0.065,0.084 0.056,0.083 0.056,0.093 0.055,0.093 0.056,0.093 0.047,0.093 0.037,0.093 0.046,0.102 0.028,0.102 0.037,0.102 0.028,0.103 0.019,0.102 0.028,0.111 0.009,0.112 0.009,0.102 0.009,0.111 v 0.112 48.946 l 7.544,14.872 0.009,0.01 v 0.01 0.01 l 0.009,0.01 0.009,0.018 v 0.01 l 0.01,0.018 0.009,0.01 v 0.019 l 0.009,0.01 v 0.01 l 0.01,0.027 0.009,0.019 v 0.01 l 0.009,0.019 0.009,0.018 v 0.01 l 0.01,0.018 v 0.019 l 0.009,0.019 v 0 0.018 l 0.009,0.01 v 0.019 0.01 l 0.01,0.028 v 0.01 0.01 l 0.009,0.01 v 0.019 0.01 0.01 0.01 0.019 l 0.009,0.01 v 0.01 0.018 0 0.028 0 0.019 0.027 l 0.009,0.019 v 0.01 0.019 0.019 3.576 l -0.009,0.13 v 0.139 l -0.018,0.13 -0.019,0.13 -0.019,0.121 -0.027,0.13 -0.038,0.121 -0.037,0.121 -0.046,0.121 -0.047,0.12 -0.046,0.112 -0.056,0.111 -0.065,0.112 -0.065,0.111 -0.065,0.102 -0.074,0.103 -0.075,0.102 -0.074,0.093 -0.083,0.093 -0.093,0.092 -0.084,0.084 -0.093,0.084 -0.102,0.083 -0.093,0.075 -0.102,0.065 -0.112,0.074 -0.102,0.065 -0.111,0.056 -0.112,0.055 -0.121,0.056 -0.111,0.047 -0.121,0.037 -0.121,0.037 -0.13,0.037 -0.12,0.028 -0.13,0.028 -0.13,0.018 -0.13,0.01 -0.131,0.01 h -0.13 -89.782 -0.14 l -0.13,-0.01 -0.13,-0.01 -0.13,-0.018 -0.13,-0.028 -0.121,-0.028 -0.12,-0.037 -0.121,-0.037 -0.121,-0.037 -0.121,-0.047 -0.111,-0.056 -0.121,-0.055 -0.102,-0.056 -0.112,-0.065 -0.102,-0.074 -0.102,-0.065 -0.102,-0.075 -0.093,-0.083 -0.093,-0.084 -0.093,-0.084 -0.084,-0.092 -0.083,-0.093 -0.084,-0.093 -0.074,-0.102 -0.074,-0.103 -0.065,-0.102 -0.065,-0.111 -0.056,-0.112 -0.056,-0.111 -0.056,-0.112 -0.046,-0.12 -0.037,-0.121 -0.047,-0.121 -0.028,-0.121 -0.027,-0.13 -0.028,-0.121 -0.019,-0.13 -0.009,-0.13 -0.009,-0.139 v -0.13 -3.576 -0.01 -0.01 -0.019 -0.01 -0.046 -0.01 -0.018 l 0.009,-0.019 v -0.028 -0.01 -0.01 -0.019 l 0.009,-0.01 v -0.01 -0.019 -0.01 l 0.009,-0.019 v -0.018 -0.01 -0.01 l 0.01,-0.028 0.009,-0.018 v -0.019 l 0.009,-0.019 v -0.018 l 0.01,-0.01 v -0.01 l 0.009,-0.018 v -0.01 l 0.009,-0.018 0.009,-0.028 v -0.01 l 0.01,-0.019 0.009,-0.019 0.009,-0.018 0.01,-0.019 v 0 -0.018 l 0.009,-0.019 0.009,-0.01 v -0.01 l 7.543,-14.872 v -48.946 -0.112 l 0.01,-0.111 0.009,-0.102 0.018,-0.112 0.019,-0.111 0.028,-0.102 0.028,-0.103 0.028,-0.102 0.037,-0.102 0.037,-0.102 0.046,-0.093 0.047,-0.093 0.046,-0.093 0.056,-0.093 0.056,-0.093 0.065,-0.083 0.065,-0.084 0.065,-0.084 0.065,-0.074 0.074,-0.074 0.074,-0.074 0.084,-0.075 0.074,-0.065 0.084,-0.065 0.093,-0.056 0.084,-0.055 0.092,-0.056 0.093,-0.056 0.093,-0.046 0.102,-0.037 0.093,-0.047 0.102,-0.028 0.103,-0.037 0.102,-0.028 0.111,-0.018 0.102,-0.028 0.112,-0.01 0.111,-0.01 0.112,-0.01 h 0.111 75.422 0.111 z m -83.253,70.749 v 0.019 0.018 l 0.01,0.019 v 0.01 0.019 l 0.009,0.018 v 0.019 l 0.009,0.01 v 0.019 l 0.009,0.018 0.01,0.01 v 0.018 l 0.009,0.01 0.009,0.019 0.01,0.01 0.009,0.019 0.009,0.01 0.009,0.019 0.01,0.01 0.018,0.01 0.01,0.01 0.009,0.019 0.018,0.01 0.01,0.01 0.009,0.01 0.019,0.01 0.009,0.01 h 0.019 l 0.009,0.01 0.018,0.01 0.019,0.01 h 0.009 l 0.019,0.01 h 0.018 l 0.019,0.01 h 0.009 0.019 0.018 0.019 l 0.019,0.01 h 89.782 l 0.01,-0.01 h 0.009 0.009 0.019 0.009 l 0.009,-0.01 h 0.01 0.018 l 0.01,-0.01 h 0.009 l 0.009,-0.01 0.009,-0.01 h 0.01 l 0.018,-0.01 0.01,-0.01 0.009,-0.01 0.009,-0.01 0.01,-0.01 0.009,-0.01 0.018,-0.01 0.01,-0.01 0.009,-0.01 0.009,-0.018 0.01,-0.01 0.009,-0.01 0.009,-0.019 0.009,-0.01 0.01,-0.018 0.018,-0.01 0.01,-0.018 0.009,-0.019 0.009,-0.018 0.009,-0.01 0.01,-0.018 0.009,-0.019 0.009,-0.018 0.01,-0.019 0.009,-0.019 0.009,-0.027 0.009,-0.019 v -2.164 H 262.75 182.556 Z m 34.799,-4.988 h 21.04 l -1.319,-4.766 h -18.412 z m -33.907,0 h 30.98 l 1.552,-5.639 0.028,-0.084 0.028,-0.083 0.027,-0.084 0.038,-0.084 0.037,-0.074 0.037,-0.084 0.037,-0.074 0.047,-0.074 0.046,-0.074 0.046,-0.075 0.047,-0.065 0.056,-0.074 0.046,-0.065 0.056,-0.065 0.065,-0.065 0.056,-0.056 0.065,-0.056 0.065,-0.065 0.065,-0.046 0.065,-0.056 0.065,-0.056 0.074,-0.046 0.065,-0.047 0.074,-0.037 0.075,-0.046 0.074,-0.037 0.084,-0.037 0.074,-0.038 0.083,-0.027 0.075,-0.028 0.083,-0.028 0.084,-0.028 0.084,-0.019 0.083,-0.018 0.093,-0.019 0.084,-0.01 0.083,-0.01 0.093,-0.01 0.084,-0.01 h 0.093 18.662 0.084 l 0.093,0.01 0.083,0.01 0.093,0.01 0.084,0.01 0.084,0.019 0.083,0.018 0.084,0.019 0.083,0.028 0.084,0.028 0.084,0.028 0.074,0.027 0.083,0.038 0.075,0.037 0.074,0.037 0.074,0.046 0.075,0.037 0.074,0.047 0.065,0.046 0.074,0.056 0.065,0.056 0.065,0.046 0.065,0.065 0.056,0.056 0.065,0.056 0.056,0.065 0.056,0.065 0.055,0.065 0.047,0.074 0.056,0.065 0.046,0.075 0.047,0.074 0.037,0.074 0.046,0.074 0.037,0.084 0.037,0.074 0.028,0.084 0.028,0.084 0.028,0.083 0.028,0.084 1.561,5.639 h 30.98 l -6.27,-12.356 h -76.323 z m 6.809,-15.179 h 75.236 v -47.776 h -75.236 z"
           id="path149"
           inkscape:connector-curvature="0"
           style="fill:#279bec" />
      </g>
    </g>
    <g
       style="isolation:isolate"
       id="g161"
       transform="translate(605.66737,-138.89459)">
      <path
         d="m 259.659,1815.469 c 0,0.948 0,5.714 0,14.297 h -63.577 c 0,-8.583 0,-13.349 0,-14.297 0,-0.78 -0.632,-1.412 -1.412,-1.412 -0.781,0 -1.412,0.632 -1.412,1.412 0,1.487 0,13.414 0,14.91 0,1.217 0.994,2.211 2.211,2.211 6.484,0 58.319,0 64.803,0 1.217,0 2.211,-0.994 2.211,-2.211 0,-1.496 0,-13.423 0,-14.91 0,-0.78 -0.632,-1.412 -1.412,-1.412 -0.78,0 -1.412,0.632 -1.412,1.412 z"
         id="path155"
         inkscape:connector-curvature="0"
         style="fill:#000000" />
      <g
         id="g159">
        <path
           d="m 259.659,1815.469 c 0,0.948 0,5.714 0,14.297 h -63.577 c 0,-8.583 0,-13.349 0,-14.297 0,-0.78 -0.632,-1.412 -1.412,-1.412 -0.781,0 -1.412,0.632 -1.412,1.412 0,1.487 0,13.414 0,14.91 0,1.217 0.994,2.211 2.211,2.211 6.484,0 58.319,0 64.803,0 1.217,0 2.211,-0.994 2.211,-2.211 0,-1.496 0,-13.423 0,-14.91 0,-0.78 -0.632,-1.412 -1.412,-1.412 -0.78,0 -1.412,0.632 -1.412,1.412 z"
           id="path157"
           inkscape:connector-curvature="0"
           style="fill:#279bec" />
      </g>
    </g>
    <g
       style="isolation:isolate"
       id="g169"
       transform="translate(605.66737,-138.89459)">
      <path
         d="m 195.469,1790.824 c -1.217,0 -2.211,0.995 -2.211,2.211 0,1.496 0,13.424 0,14.91 0,0.78 0.631,1.412 1.412,1.412 0.78,0 1.412,-0.632 1.412,-1.412 0,-0.957 0,-5.722 0,-14.296 h 63.577 c 0,8.574 0,13.339 0,14.296 0,0.78 0.632,1.412 1.412,1.412 0.78,0 1.412,-0.632 1.412,-1.412 0,-1.486 0,-13.414 0,-14.91 0,-1.216 -0.994,-2.211 -2.211,-2.211 -12.959,0 -58.319,0 -64.803,0 z"
         id="path163"
         inkscape:connector-curvature="0"
         style="fill:#000000" />
      <g
         id="g167">
        <path
           d="m 195.469,1790.824 c -1.217,0 -2.211,0.995 -2.211,2.211 0,1.496 0,13.424 0,14.91 0,0.78 0.631,1.412 1.412,1.412 0.78,0 1.412,-0.632 1.412,-1.412 0,-0.957 0,-5.722 0,-14.296 h 63.577 c 0,8.574 0,13.339 0,14.296 0,0.78 0.632,1.412 1.412,1.412 0.78,0 1.412,-0.632 1.412,-1.412 0,-1.486 0,-13.414 0,-14.91 0,-1.216 -0.994,-2.211 -2.211,-2.211 -12.959,0 -58.319,0 -64.803,0 z"
           id="path165"
           inkscape:connector-curvature="0"
           style="fill:#279bec" />
      </g>
    </g>
  </g>
</svg>
