<?xml version="1.0" encoding="UTF-8" standalone="no"?>
<!-- Generator: Adobe Illustrator 19.0.0, SVG Export Plug-In . SVG Version: 6.00 Build 0)  -->

<svg
   xmlns:dc="http://purl.org/dc/elements/1.1/"
   xmlns:cc="http://creativecommons.org/ns#"
   xmlns:rdf="http://www.w3.org/1999/02/22-rdf-syntax-ns#"
   xmlns:svg="http://www.w3.org/2000/svg"
   xmlns="http://www.w3.org/2000/svg"
   xmlns:sodipodi="http://sodipodi.sourceforge.net/DTD/sodipodi-0.dtd"
   xmlns:inkscape="http://www.inkscape.org/namespaces/inkscape"
   version="1.1"
   id="Capa_1"
   x="0px"
   y="0px"
   viewBox="0 0 74.004781 72.611029"
   xml:space="preserve"
   sodipodi:docname="person.svg"
   width="74.004784"
   height="72.611031"
   inkscape:version="0.92.3 (2405546, 2018-03-11)"><metadata
   id="metadata45"><rdf:RDF><cc:Work
       rdf:about=""><dc:format>image/svg+xml</dc:format><dc:type
         rdf:resource="http://purl.org/dc/dcmitype/StillImage" /><dc:title></dc:title></cc:Work></rdf:RDF></metadata><defs
   id="defs43" /><sodipodi:namedview
   pagecolor="#ffffff"
   bordercolor="#666666"
   borderopacity="1"
   objecttolerance="10"
   gridtolerance="10"
   guidetolerance="10"
   inkscape:pageopacity="0"
   inkscape:pageshadow="2"
   inkscape:window-width="1680"
   inkscape:window-height="987"
   id="namedview41"
   showgrid="false"
   inkscape:zoom="4.5188219"
   inkscape:cx="19.810255"
   inkscape:cy="29.712429"
   inkscape:window-x="-8"
   inkscape:window-y="-8"
   inkscape:window-maximized="1"
   inkscape:current-layer="Capa_1" />
















<g
   transform="matrix(-0.13296751,0,0,0.13618632,68.07929,-2.9055351)"
   id="g20"><g
     id="g18"><path
       inkscape:connector-curvature="0"
       style="fill:#ffffff"
       d="m 163.67,394.411 50.738,-27.675 c -0.286,-0.283 -0.047,-0.365 0.558,-0.305 l 24.832,-13.545 C 249.786,347.438 256,336.969 256,325.592 V 294.4 c -6.915,-8.808 -12.898,-18.31 -17.854,-28.352 h -10e-4 l -0.011,-0.023 c -1.149,-2.286 -2.284,-4.7 -3.403,-7.202 -0.154,-0.346 -0.308,-0.679 -0.461,-1.029 -1.136,-2.588 -2.244,-5.258 -3.297,-8.052 -0.069,-0.181 -0.131,-0.374 -0.199,-0.556 -0.922,-2.472 -1.787,-5.029 -2.609,-7.642 -0.225,-0.714 -0.445,-1.423 -0.66,-2.146 -0.862,-2.885 -1.677,-5.821 -2.373,-8.854 -7.328,-4.688 -11.772,-12.778 -11.799,-21.477 v -34.133 c 0.028,-7.231 3.131,-14.11 8.533,-18.917 V 107.824 C 204.619,95.111 183.541,88.68 162.133,89.6 80.533,89.6 76.8,157.867 76.8,157.867 v 42.621 c -4.984,4.029 -8.074,9.944 -8.533,16.336 v 29.479 c 0.023,7.513 3.861,14.499 10.19,18.548 5.633,20.896 16.705,39.926 32.089,55.149 v 26.938 c 0,9.826 -5.367,18.867 -13.993,23.573 L 39.339,406.374 C 20.349,416.732 8.533,436.636 8.533,458.268 v 23.867 H 128 V 454.5 c 0,-25.049 13.681,-48.095 35.67,-60.089 z"
       data-original="#A4C2F7"
       class=""
       data-old_color="#ffffff"
       id="path2" /><path
       inkscape:connector-curvature="0"
       style="fill:#ffffff"
       d="m 163.67,394.411 50.738,-27.675 c -0.286,-0.283 -0.047,-0.365 0.558,-0.305 l 24.832,-13.545 C 249.786,347.438 256,336.969 256,325.592 V 294.4 c -6.915,-8.808 -12.898,-18.31 -17.854,-28.352 h -10e-4 l -0.011,-0.023 c -1.149,-2.286 -2.284,-4.7 -3.403,-7.202 -0.154,-0.346 -0.308,-0.679 -0.461,-1.029 -1.136,-2.588 -2.244,-5.258 -3.297,-8.052 -0.069,-0.181 -0.131,-0.374 -0.199,-0.556 -0.922,-2.472 -1.787,-5.029 -2.609,-7.642 -0.225,-0.714 -0.445,-1.423 -0.66,-2.146 -0.862,-2.885 -1.677,-5.821 -2.373,-8.854 -7.328,-4.688 -11.772,-12.778 -11.799,-21.477 v -34.133 c 0.028,-7.231 3.131,-14.11 8.533,-18.917 V 107.824 C 204.619,95.111 183.541,88.68 162.133,89.6 80.533,89.6 76.8,157.867 76.8,157.867 v 42.621 c -4.984,4.029 -8.074,9.944 -8.533,16.336 v 29.479 c 0.023,7.513 3.861,14.499 10.19,18.548 5.633,20.896 16.705,39.926 32.089,55.149 v 26.938 c 0,9.826 -5.367,18.867 -13.993,23.573 L 39.339,406.374 C 20.349,416.732 8.533,436.636 8.533,458.268 v 23.867 H 128 V 454.5 c 0,-25.049 13.681,-48.095 35.67,-60.089 z"
       data-original="#FFFFFF"
       class=""
       id="path4" /><path
       inkscape:connector-curvature="0"
       style="fill:#ffffff"
       d="m 189.27,394.411 50.738,-27.675 c -0.286,-0.283 -0.047,-0.365 0.558,-0.305 l 24.832,-13.545 c 9.988,-5.448 16.202,-15.917 16.202,-27.294 V 294.4 c -6.915,-8.808 -12.898,-18.31 -17.854,-28.352 h -10e-4 l -0.011,-0.023 c -1.149,-2.286 -2.284,-4.7 -3.403,-7.202 -0.154,-0.346 -0.308,-0.679 -0.461,-1.029 -1.136,-2.588 -2.244,-5.258 -3.297,-8.052 -0.069,-0.181 -0.131,-0.374 -0.199,-0.556 -0.922,-2.472 -1.787,-5.029 -2.609,-7.642 -0.225,-0.714 -0.445,-1.423 -0.66,-2.146 -0.862,-2.885 -1.677,-5.821 -2.373,-8.854 -7.328,-4.688 -11.772,-12.778 -11.799,-21.477 v -34.133 c 0.028,-7.231 3.131,-14.11 8.533,-18.917 V 107.824 C 230.219,95.111 209.141,88.68 187.733,89.6 c -81.6,0 -85.333,68.267 -85.333,68.267 v 42.621 c -4.984,4.029 -8.074,9.944 -8.533,16.336 v 29.479 c 0.023,7.513 3.861,14.499 10.19,18.548 5.633,20.896 16.705,39.926 32.089,55.149 v 26.938 c 0,9.826 -5.367,18.867 -13.993,23.573 l -57.214,35.863 c -18.991,10.358 -30.806,30.262 -30.806,51.894 v 23.867 H 153.6 V 454.5 c 0,-25.049 13.681,-48.095 35.67,-60.089 z"
       data-original="#E3E7F2"
       class=""
       data-old_color="#ffffff"
       id="path6" /><path
       inkscape:connector-curvature="0"
       style="fill:#ffffff"
       d="m 465.631,394.949 -81.512,-40.755 c -10.533,-5.266 -17.186,-16.032 -17.185,-27.808 V 294.4 c 2.738,-3.171 5.311,-6.48 7.71,-9.915 10.998,-15.63 19.541,-32.849 25.335,-51.06 10.735,-3.264 18.094,-13.138 18.154,-24.358 v -34.133 c -0.028,-7.231 -3.131,-14.11 -8.533,-18.917 v -49.35 c 0,0 10.133,-76.8 -93.867,-76.8 -104,0 -93.867,76.8 -93.867,76.8 v 49.35 c -5.402,4.807 -8.505,11.685 -8.533,18.917 v 34.133 c 0.027,8.699 4.471,16.789 11.799,21.477 5.665,23.226 16.185,44.989 30.868,63.856 v 31.192 c 0,11.377 -6.214,21.846 -16.202,27.294 L 163.67,394.411 C 141.681,406.405 128,429.451 128,454.498 v 27.635 h 375.467 v -25.965 c -10e-4,-25.924 -14.648,-49.625 -37.836,-61.219 z"
       data-original="#A4C2F7"
       class=""
       data-old_color="#ffffff"
       id="path8" /><path
       inkscape:connector-curvature="0"
       style="fill:#ffffff"
       d="m 440.031,394.949 -81.512,-40.755 c -10.533,-5.266 -17.186,-16.032 -17.185,-27.808 V 294.4 c 2.738,-3.171 5.311,-6.48 7.71,-9.915 10.998,-15.63 19.541,-32.849 25.335,-51.06 10.735,-3.264 18.094,-13.138 18.154,-24.358 v -34.133 c -0.028,-7.231 -3.131,-14.11 -8.533,-18.917 v -49.35 c 0,0 10.133,-76.8 -93.867,-76.8 -48.356,0 -59.733,76.8 -59.733,76.8 v 49.35 c -5.402,4.807 -8.505,11.685 -8.533,18.917 v 34.133 c 0.027,8.699 4.471,16.789 11.799,21.477 5.665,23.226 16.185,44.989 30.868,63.856 v 31.192 c 0,11.377 -6.214,21.846 -16.202,27.294 l -76.128,41.525 c -21.989,11.994 -35.67,35.04 -35.67,60.087 v 27.635 h 341.333 v -25.965 c -0.001,-25.924 -14.648,-49.625 -37.836,-61.219 z"
       data-original="#E3E7F2"
       class=""
       data-old_color="#ffffff"
       id="path10" /><path
       inkscape:connector-curvature="0"
       style="fill:#279bec"
       d="M 503.467,490.667 H 128 c -2.263,0.001 -4.434,-0.898 -6.035,-2.499 -1.6,-1.6 -2.499,-3.771 -2.499,-6.035 V 454.5 c -0.01,-28.173 15.379,-54.099 40.117,-67.583 l 76.129,-41.525 c 7.247,-3.951 11.756,-11.546 11.754,-19.8 V 297.359 C 233.618,278.89 223.468,257.92 217.574,235.601 209.501,229.16 204.799,219.395 204.799,209.068 v -34.133 c 0.032,-8.255 3.065,-16.216 8.533,-22.4 v -45.392 c -1.657,-20.193 4.764,-40.219 17.854,-55.683 17.525,-19.992 45.971,-30.125 84.546,-30.125 38.575,0 67.021,10.133 84.546,30.125 13.09,15.464 19.511,35.49 17.854,55.683 v 45.392 c 5.468,6.184 8.501,14.145 8.533,22.4 v 34.133 c 0.014,13.295 -7.753,25.368 -19.858,30.867 -6,17.611 -14.487,34.274 -25.204,49.483 -2.125,3.008 -4.183,5.725 -6.138,8.117 v 28.85 c -0.03,8.551 4.805,16.376 12.467,20.175 l 81.517,40.758 c 26.146,12.965 42.648,39.666 42.55,68.85 v 25.967 c 10e-4,2.263 -0.898,4.434 -2.499,6.035 -1.599,1.599 -3.77,2.498 -6.033,2.497 z M 136.533,473.6 h 358.4 v -17.434 c 0.08,-22.714 -12.764,-43.497 -33.117,-53.583 L 380.3,361.825 c -13.457,-6.676 -21.949,-20.42 -21.9,-35.441 V 294.4 c -10e-4,-2.074 0.755,-4.077 2.125,-5.633 2.54,-2.944 4.925,-6.017 7.146,-9.208 10.504,-14.92 18.659,-31.36 24.183,-48.75 0.854,-2.649 2.948,-4.715 5.608,-5.533 7.178,-2.134 12.109,-8.72 12.137,-16.208 v -34.133 c -0.016,-4.82 -2.099,-9.402 -5.721,-12.583 -1.792,-1.618 -2.814,-3.919 -2.813,-6.333 v -49.35 c 0,-0.373 0.025,-0.747 0.075,-1.117 C 402.306,89.957 397.338,74.523 387.294,62.535 373.133,46.517 349.054,38.4 315.733,38.4 c -33.446,0 -57.571,8.175 -71.713,24.308 -10.023,11.923 -14.943,27.316 -13.696,42.842 0.05,0.37 0.075,0.743 0.075,1.117 v 49.35 c 0.001,2.414 -1.021,4.716 -2.813,6.333 -3.622,3.181 -5.705,7.763 -5.721,12.583 v 34.133 c 0.019,5.804 2.996,11.198 7.896,14.308 1.867,1.206 3.19,3.092 3.688,5.258 5.368,21.914 15.281,42.455 29.096,60.292 1.284,1.536 1.987,3.473 1.988,5.475 v 31.192 c 10e-4,14.499 -7.917,27.84 -20.646,34.783 L 167.758,401.9 c -19.256,10.492 -31.235,30.671 -31.225,52.6 z"
       data-original="#428DFF"
       class="active-path"
       data-old_color="#279bec"
       id="path12" /><path
       inkscape:connector-curvature="0"
       id="SVGCleanerId_0"
       style="fill:#279bec"
       d="M 128,490.667 H 8.533 c -2.263,0.001 -4.434,-0.898 -6.035,-2.499 -1.6,-1.6 -2.499,-3.771 -2.499,-6.035 v -23.867 c -0.007,-24.755 13.515,-47.535 35.25,-59.383 L 92.02,363.275 c 6.104,-3.172 9.95,-9.463 9.992,-16.341 V 323.526 C 87.498,308.399 76.834,290.004 70.917,269.893 63.835,264.108 59.729,255.446 59.733,246.301 v -29.475 c 0.243,-7.465 3.29,-14.564 8.533,-19.883 v -39.075 c 0.054,-1.233 5.213,-76.8 93.867,-76.8 23.293,-0.851 46.188,6.204 64.962,20.017 2.083,1.617 3.303,4.105 3.304,6.741 v 48.192 c 0.001,2.414 -1.021,4.716 -2.813,6.333 -3.622,3.181 -5.705,7.763 -5.721,12.583 v 34.133 c 0.019,5.804 2.996,11.198 7.896,14.308 1.867,1.206 3.19,3.092 3.688,5.258 0.654,2.85 1.421,5.617 2.229,8.325 l 0.621,2 c 0.783,2.5 1.6,4.917 2.471,7.242 1.183,3.175 2.233,5.709 3.308,8.15 l -7.346,4.475 7.792,-3.483 c 1.062,2.383 2.146,4.683 3.233,6.858 4.669,9.462 10.297,18.421 16.796,26.733 1.279,1.534 1.98,3.469 1.979,5.467 v 31.192 c 0.001,14.499 -7.917,27.84 -20.646,34.783 l -24.833,13.55 c -0.108,0.058 -0.221,0.117 -0.329,0.167 -0.075,0.05 -0.154,0.092 -0.229,0.133 L 167.758,401.9 v 0 c -19.256,10.492 -31.235,30.671 -31.225,52.6 v 27.633 c 0.001,2.263 -0.898,4.434 -2.499,6.035 -1.6,1.601 -3.771,2.5 -6.034,2.499 z M 17.067,473.6 h 102.4 v -19.1 c -0.01,-28.173 15.379,-54.099 40.117,-67.583 l 49.329,-26.908 c 0.856,-0.665 1.814,-1.185 2.838,-1.542 l 23.963,-13.075 c 7.247,-3.951 11.756,-11.546 11.754,-19.8 V 297.35 c -6.454,-8.633 -12.125,-17.825 -16.946,-27.466 -1.217,-2.425 -2.408,-4.958 -3.579,-7.575 l -0.479,-1.075 c -1.2,-2.725 -2.367,-5.542 -3.475,-8.492 -1.179,-3.183 -2.096,-5.883 -2.963,-8.65 l -0.688,-2.225 c -0.621,-2.058 -1.206,-4.144 -1.754,-6.258 -8.077,-6.442 -12.782,-16.211 -12.783,-26.542 v -34.133 c 0.032,-8.255 3.065,-16.216 8.533,-22.4 v -40.375 c -15.239,-9.783 -33.103,-14.676 -51.2,-14.025 -72.221,0 -76.663,57.775 -76.817,60.233 l 0.017,42.117 c -0.001,2.41 -1.021,4.708 -2.808,6.325 -3.177,2.434 -5.24,6.044 -5.725,10.017 V 246.3 c 0.018,4.617 2.386,8.907 6.283,11.383 1.871,1.202 3.196,3.09 3.692,5.258 5.237,19.241 15.442,36.766 29.592,50.817 1.729,1.615 2.712,3.875 2.712,6.242 v 26.933 c 0.008,12.952 -7.068,24.871 -18.442,31.067 l -56.767,35.608 c -16.467,8.824 -26.762,25.976 -26.804,44.658 V 473.6 Z"
       data-original="#428DFF"
       class="active-path"
       data-old_color="#279bec" /><g
       id="g16"><path
         inkscape:connector-curvature="0"
         id="SVGCleanerId_0_1_"
         style="fill:#279bec"
         d="M 128,490.667 H 8.533 c -2.263,0.001 -4.434,-0.898 -6.035,-2.499 -1.6,-1.6 -2.499,-3.771 -2.499,-6.035 v -23.867 c -0.007,-24.755 13.515,-47.535 35.25,-59.383 L 92.02,363.275 c 6.104,-3.172 9.95,-9.463 9.992,-16.341 V 323.526 C 87.498,308.399 76.834,290.004 70.917,269.893 63.835,264.108 59.729,255.446 59.733,246.301 v -29.475 c 0.243,-7.465 3.29,-14.564 8.533,-19.883 v -39.075 c 0.054,-1.233 5.213,-76.8 93.867,-76.8 23.293,-0.851 46.188,6.204 64.962,20.017 2.083,1.617 3.303,4.105 3.304,6.741 v 48.192 c 0.001,2.414 -1.021,4.716 -2.813,6.333 -3.622,3.181 -5.705,7.763 -5.721,12.583 v 34.133 c 0.019,5.804 2.996,11.198 7.896,14.308 1.867,1.206 3.19,3.092 3.688,5.258 0.654,2.85 1.421,5.617 2.229,8.325 l 0.621,2 c 0.783,2.5 1.6,4.917 2.471,7.242 1.183,3.175 2.233,5.709 3.308,8.15 l -7.346,4.475 7.792,-3.483 c 1.062,2.383 2.146,4.683 3.233,6.858 4.669,9.462 10.297,18.421 16.796,26.733 1.279,1.534 1.98,3.469 1.979,5.467 v 31.192 c 0.001,14.499 -7.917,27.84 -20.646,34.783 l -24.833,13.55 c -0.108,0.058 -0.221,0.117 -0.329,0.167 -0.075,0.05 -0.154,0.092 -0.229,0.133 L 167.758,401.9 v 0 c -19.256,10.492 -31.235,30.671 -31.225,52.6 v 27.633 c 0.001,2.263 -0.898,4.434 -2.499,6.035 -1.6,1.601 -3.771,2.5 -6.034,2.499 z M 17.067,473.6 h 102.4 v -19.1 c -0.01,-28.173 15.379,-54.099 40.117,-67.583 l 49.329,-26.908 c 0.856,-0.665 1.814,-1.185 2.838,-1.542 l 23.963,-13.075 c 7.247,-3.951 11.756,-11.546 11.754,-19.8 V 297.35 c -6.454,-8.633 -12.125,-17.825 -16.946,-27.466 -1.217,-2.425 -2.408,-4.958 -3.579,-7.575 l -0.479,-1.075 c -1.2,-2.725 -2.367,-5.542 -3.475,-8.492 -1.179,-3.183 -2.096,-5.883 -2.963,-8.65 l -0.688,-2.225 c -0.621,-2.058 -1.206,-4.144 -1.754,-6.258 -8.077,-6.442 -12.782,-16.211 -12.783,-26.542 v -34.133 c 0.032,-8.255 3.065,-16.216 8.533,-22.4 v -40.375 c -15.239,-9.783 -33.103,-14.676 -51.2,-14.025 -72.221,0 -76.663,57.775 -76.817,60.233 l 0.017,42.117 c -0.001,2.41 -1.021,4.708 -2.808,6.325 -3.177,2.434 -5.24,6.044 -5.725,10.017 V 246.3 c 0.018,4.617 2.386,8.907 6.283,11.383 1.871,1.202 3.196,3.09 3.692,5.258 5.237,19.241 15.442,36.766 29.592,50.817 1.729,1.615 2.712,3.875 2.712,6.242 v 26.933 c 0.008,12.952 -7.068,24.871 -18.442,31.067 l -56.767,35.608 c -16.467,8.824 -26.762,25.976 -26.804,44.658 V 473.6 Z"
         data-original="#428DFF"
         class="active-path"
         data-old_color="#279bec" /></g></g></g><path
   inkscape:connector-curvature="0"
   style="isolation:isolate;fill:#279bec;stroke-width:0.66765773"
   d="M 33.127634,58.877796 V 45.144556 H 53.56621 74.00478 v 13.73324 13.733236 H 53.56621 33.127634 Z m 10.27,-2.677309 5.463946,-2.378095 v -1.032285 -1.032286 l -5.463946,-2.378746 c -3.005069,-1.308731 -5.498212,-2.361834 -5.539332,-2.340368 -0.0418,0.02081 -0.07607,0.548341 -0.07607,1.172136 v 1.133758 l 4.249584,1.722427 4.25027,1.723079 -4.25027,1.720474 -4.249584,1.719826 v 1.179942 c 0,0.648512 0.03427,1.176689 0.07607,1.173436 0.04113,0 2.534263,-1.075866 5.539332,-2.383298 z M 60.04167,52.779698 v -1.104485 h -3.03522 -3.03523 v 1.104485 1.104488 h 3.03523 3.03522 z"
   id="path199" /><path
   inkscape:connector-curvature="0"
   style="isolation:isolate;fill:#ffffff;stroke-width:0.66765773"
   d="m 37.820611,58.092035 c -0.01781,-0.241322 -0.0329,-0.755188 -0.0329,-1.141563 v -0.70185 l 1.202028,-0.485898 c 0.660635,-0.267341 2.57401,-1.042041 4.25164,-1.721776 1.678315,-0.679084 3.037277,-1.24759 3.02083,-1.263201 -0.01713,-0.01625 -1.92434,-0.797468 -4.23999,-1.736739 l -4.209152,-1.707465 0.0076,-1.118147 c 0.007,-0.614689 0.0185,-1.128555 0.03221,-1.140913 0.04454,-0.04293 3.184618,1.293121 8.965862,3.813666 l 1.972996,0.860565 v 1.040741 1.040742 l -2.479437,1.08042 c -4.237248,1.847967 -8.355255,3.621131 -8.408023,3.621131 -0.0281,0 -0.06511,-0.197742 -0.0836,-0.439713 z"
   id="path201" /><path
   inkscape:connector-curvature="0"
   style="isolation:isolate;fill:#ffffff;stroke-width:0.66765773"
   d="m 53.97671,52.793358 v -1.080419 h 3.01055 3.00986 v 1.080419 1.08042 h -3.00986 -3.01055 z"
   id="path203" /></svg>